<svg width="354" height="139.48656716417912" viewBox="0 0 335 132" class="looka-1j8o68f">
    <defs id="SvgjsDefs25578">
        <linearGradient id="SvgjsLinearGradient25585">
            <stop id="SvgjsStop25586" stop-color="#7d141d" offset="0"></stop>
            <stop id="SvgjsStop25587" stop-color="#ff1e27" offset="1"></stop>
        </linearGradient>
    </defs>
    <g id="SvgjsG25579" featurekey="rootContainer" transform="matrix(1,0,0,1,0,0)" fill="#303030">
        <rect xmlns="http://www.w3.org/2000/svg" width="335" height="132" rx="10" ry="10"></rect>
    </g>
    <g id="SvgjsG25580" featurekey="S6ay6y-0"
       transform="matrix(1.1957840292693636,0,0,1.1957840292693636,1.48029461861303,6.795391188233138)"
       fill="url(#SvgjsLinearGradient25585)">
        <path xmlns="http://www.w3.org/2000/svg"
              d="M56.5,34.8c0.4,3.2-1.6,6.2-4.7,7.1c-0.1,0-0.3,0.2-0.3,0.3v1.1c0,0.8-0.7,1.5-1.5,1.5s-1.5-0.7-1.5-1.5v-1.1  c0-1.5,1-2.8,2.5-3.2c1.7-0.5,2.8-2.1,2.6-3.9c-0.199-1.6-1.5-3-3.1-3.1c-2-0.2-4,1.271-4,3.6c0,0.8-0.7,1.5-1.5,1.5  s-1.5-0.7-1.5-1.5c0-4.107,3.586-6.913,7.3-6.5C53.8,29.4,56.2,31.8,56.5,34.8z M77.2,75L53.8,88c-1,0.5-2.2,0.2-2.7-0.8L45.7,77.4  c-0.5-0.9-1.6-1.301-2.5-0.9l-8.7,3.7c-3.4,1.399-7.2-0.5-8.2-4L22,60l-5.5-3.1c-0.9-0.5-1.2-1.601-0.9-2.5L21.4,40.3  c0.3-0.8,0.5-1.7,0.6-2.6c0.7-15.4,14-27.6,29.8-26.6C65.6,12,76.9,23.1,77.9,36.9C78.4,44.1,76.3,50.8,72.3,56  c-1.5,2-1.6,4.6-0.3,6.7l5.9,9.5C78.5,73.2,78.2,74.5,77.2,75z M66,39c0-8.8-7.2-16-16-16s-16,7.2-16,16s7.2,16,16,16S66,47.8,66,39  z M50,45.7c-0.8,0-1.4,0.6-1.4,1.4c0,0.8,0.6,1.4,1.4,1.4s1.4-0.6,1.4-1.4C51.4,46.3,50.8,45.7,50,45.7z"></path>
    </g>
    <g id="SvgjsG25581" featurekey="nameFeature-0"
       transform="matrix(3.5561876605806737,0,0,3.5561876605806737,114.00426745079811,22.21906169709663)"
       fill="#f2f7ff">
        <path d="M3.04 5 q0.3 0 0.51 0.21 t0.21 0.51 l0 1.46 q0 0.3 -0.21 0.51 t-0.51 0.21 l-2.06 0 q-0.28 0 -0.49 -0.21 t-0.21 -0.51 l0 -1.46 q0 -0.3 0.21 -0.51 t0.49 -0.21 l2.06 0 z M11.98 5 q0.28 0 0.49 0.21 t0.21 0.51 l0 1.46 q0 0.3 -0.21 0.51 t-0.49 0.21 l-4.02 0 l0 11.36 q0 0.28 -0.21 0.49 t-0.49 0.21 l-1.54 0 q-0.3 0 -0.51 -0.21 t-0.21 -0.49 l0 -13.54 q0 -0.3 0.21 -0.51 t0.51 -0.21 l6.26 0 z M19.740000000000002 17.06 q0.24 0.08 0.38 0.27 t0.14 0.43 l0 1.54 q0 0.32 -0.26 0.54 q-0.2 0.16 -0.44 0.16 q-0.1 0 -0.14 -0.02 q-1.86 -0.36 -3.2 -1.72 q-1.8 -1.84 -1.8 -4.84 l0 -7.7 q0 -0.3 0.21 -0.51 t0.49 -0.21 l1.54 0 q0.3 0 0.51 0.21 t0.21 0.51 l0 7.74 q0 1.9 1.08 2.9 q0.56 0.52 1.28 0.7 z M26.64 5 q0.3 0 0.51 0.21 t0.21 0.51 l0 7.7 q0 3 -1.8 4.84 q-1.34 1.36 -3.2 1.72 q-0.04 0.02 -0.14 0.02 q-0.24 0 -0.44 -0.16 q-0.26 -0.2 -0.26 -0.56 l0 -1.54 q0 -0.22 0.14 -0.41 t0.38 -0.27 q0.76 -0.22 1.28 -0.7 q1.08 -0.96 1.08 -2.9 l0 -7.74 q0 -0.3 0.21 -0.51 t0.51 -0.21 l1.52 0 z M41 12.18 q1.04 0.64 1.52 1.84 q0.28 0.64 0.28 1.58 q0 1.46 -0.78 2.45 t-2.28 1.47 q-0.94 0.32 -2.22 0.32 l-6.38 0 q-0.28 0 -0.49 -0.21 t-0.21 -0.49 l0 -1.44 q0 -0.3 0.21 -0.51 t0.49 -0.21 l6.54 0 q1.16 0 1.72 -0.42 q0.48 -0.4 0.48 -1.09 t-0.5 -1.13 q-0.62 -0.54 -1.86 -0.54 l-6.38 0 q-0.28 0 -0.49 -0.21 t-0.21 -0.51 l0 -1.38 q0 -0.28 0.21 -0.49 t0.49 -0.21 l6.02 0 q0.86 0 1.34 -0.3 q0.34 -0.2 0.54 -0.58 q0.14 -0.28 0.14 -0.65 t-0.1 -0.67 q-0.08 -0.24 -0.28 -0.44 q-0.44 -0.5 -1.46 -0.5 l-6.2 0 q-0.28 0 -0.49 -0.21 t-0.21 -0.51 l0 -1.44 q0 -0.28 0.21 -0.49 t0.49 -0.21 l6.02 0 q2.48 0 3.82 1.4 q1.14 1.14 1.14 2.86 q0 1.84 -1.12 2.92 z M55.82000000000001 16.96 q0.3 0 0.5 0.21 t0.2 0.51 l0 1.46 q0 0.28 -0.2 0.49 t-0.5 0.21 l-9.88 0 q-0.28 0 -0.49 -0.21 t-0.21 -0.49 l0 -1.46 q0 -0.3 0.21 -0.51 t0.49 -0.21 l9.88 0 z M45.940000000000005 13.86 q-0.28 0 -0.49 -0.21 t-0.21 -0.49 l0 -1.5 q0 -0.28 0.21 -0.49 t0.49 -0.21 l8.98 0 q0.3 0 0.51 0.21 t0.21 0.49 l0 1.5 q0 0.28 -0.21 0.49 t-0.51 0.21 l-8.98 0 z M55.82000000000001 5 q0.3 0 0.5 0.21 t0.2 0.49 l0 1.46 q0 0.3 -0.2 0.51 t-0.5 0.21 l-9.88 0 q-0.28 0 -0.49 -0.21 t-0.21 -0.51 l0 -1.46 q0 -0.28 0.21 -0.49 t0.49 -0.21 l9.88 0 z"></path>
    </g>
</svg>