<svg width="502.45" height="118.84205877726805" viewBox="0 0 273.96664392209095 64.8" class="looka-1j8o68f">
    <defs id="SvgjsDefs6867">
        <linearGradient id="SvgjsLinearGradient6874">
            <stop id="SvgjsStop6875" stop-color="#616161" offset="0"></stop>
            <stop id="SvgjsStop6876" stop-color="#e6e7e8" offset="0.5"></stop>
            <stop id="SvgjsStop6877" stop-color="#616161" offset="1"></stop>
        </linearGradient>
        <linearGradient id="SvgjsLinearGradient6878">
            <stop id="SvgjsStop6879" stop-color="#7d141d" offset="0"></stop>
            <stop id="SvgjsStop6880" stop-color="#ff1e27" offset="1"></stop>
        </linearGradient>
    </defs>
    <g id="SvgjsG6868" featurekey="nameLeftFeature-0"
       transform="matrix(2.5705756273350886,0,0,2.5705756273350886,1.6316986421798938,-0.412694165823682)"
       fill="url(#SvgjsLinearGradient6874)">
        <path d="M4.4141 6.016 l2.3535 0 c0.032549 0.13672 0.79752 2.6823 2.2949 7.6367 l0.41992 0 l0 4.5996 l-0.9668 0 l0 0.36133 l0.9668 0 l0 0.98633 l-2.5977 0 l0 -2.832 l-3.1836 0 l0 1.2012 l-1.2891 0 l0 2.0313 l-2.3633 0 l0 -0.13672 l0.18555 0 l0 -1.8945 l0.9668 0 l0 -3.916 l0.80078 0 z M5.5176 9.951 l0 0.029306 c-0.20183 1.1067 -0.59245 2.8581 -1.1719 5.2539 l2.1875 0 l0 -1.582 l-0.18555 0 c-0.52083 -2.2656 -0.78125 -3.4993 -0.78125 -3.7012 l-0.048828 0 z M1.3477 13.349599999999999 l0.21484 0 c0 0.058594 0.029297 0.10742 0.087891 0.14648 c0.0065136 -0.058594 0.039063 -0.10742 0.097656 -0.14648 l0.16602 0 l0 0.019531 c-0.11067 0.15625 -0.16602 0.24414 -0.16602 0.26367 c0.026045 0.058594 0.087891 0.153 0.18555 0.2832 l0 0.048828 l-0.087891 0 c-0.091143 0 -0.15625 -0.065107 -0.19531 -0.19531 c-0.097656 0.13021 -0.153 0.19531 -0.16602 0.19531 l-0.11719 0 c-0.032549 0 -0.048828 -0.016279 -0.048828 -0.048828 c0.019531 0 0.084639 -0.087891 0.19531 -0.26367 l0 -0.039063 c-0.11067 -0.16276 -0.16602 -0.25065 -0.16602 -0.26367 z M-0.63476 13.6328 l1.8359 0 l0 0.41992 l-1.8359 0 l0 -0.41992 z M9.5508 13.935500000000001 l0.49805 -0.0000095367 l0 0.11719 l-0.30273 0.38086 l0.2832 0 c0.026045 0.0065136 0.039063 0.022793 0.039063 0.048838 l0 0.048828 c0 0.032549 -0.013018 0.048828 -0.039063 0.048828 l-0.49805 0 l0 -0.11719 l0.30273 -0.38086 l-0.2832 0 l0 -0.14648 z M5.9473 14.550799999999999 l0.13671 -0.0000095367 l0 0.23438 l0.26367 -0.23438 l0.13672 0 l0 0.029297 l-0.20508 0.23438 c0.15625 0.22136 0.23438 0.34506 0.23438 0.3711 l-0.14648 0 c-0.013018 0 -0.084629 -0.084639 -0.21483 -0.25391 c-0.019531 0 -0.042314 0.022783 -0.068359 0.068359 l0 0.18555 l-0.13672 0 l0 -0.63477 z M9.5996 14.7656 l0.28318 0 c0.14323 0.019531 0.21484 0.091143 0.21484 0.21484 l-0.068359 0.11719 c0.045576 0.05208 0.068359 0.14648 0.068359 0.2832 l0 0.019531 l-0.14648 0 c-0.013018 -0.15625 -0.035801 -0.23438 -0.06835 -0.23438 l-0.16602 0 l0 0.23438 l-0.11719 0 c-0.032549 0 -0.048828 -0.016279 -0.048828 -0.048828 l0 -0.53711 c0.0065136 -0.032549 0.022793 -0.048828 0.048838 -0.048828 z M9.7168 14.9023 l0 0.14648 l0.16602 0 c0.032549 0 0.048828 -0.016279 0.048828 -0.048828 l0 -0.097656 l-0.21484 0 z M9.5508 15.585899999999999 l0.44921 -0.0000095367 c0.032549 0.0065136 0.048828 0.022793 0.048828 0.048838 l0 0.048828 c0 0.032549 -0.016279 0.048828 -0.048828 0.048828 l-0.13672 0 l0 0.49805 l-0.16602 0 l0 -0.49805 l-0.14648 0 c-0.032549 0 -0.048828 -0.016279 -0.048828 -0.048828 l0 -0.048828 c0.0065136 -0.032549 0.022793 -0.048828 0.048838 -0.048828 z M9.502 16.416 l0.11719 0 c0.045576 0 0.094404 0.13347 0.14648 0.40039 l0.019531 0 c0.078125 -0.23438 0.11719 -0.36784 0.11719 -0.40039 l0.16602 0 c-0.1237 0.42317 -0.20183 0.63477 -0.23438 0.63477 l-0.13672 0 z M4.4141 16.9531 l0 0.12695 c0 0.026045 -0.12695 0.078125 -0.38086 0.15625 l0 0.029297 l0.38086 0.13672 l0 0.14648 l-0.5957 -0.21484 l0 -0.16602 z M0.75192 17.2363 l0.078115 0 c0.05208 0 0.13672 0.21484 0.25391 0.64453 l-0.13672 0 c0 -0.013018 -0.016279 -0.061846 -0.048828 -0.14648 l-0.21484 0 c-0.013018 0.097656 -0.035801 0.14648 -0.06835 0.14648 l-0.11719 0 c0.13672 -0.42969 0.22136 -0.64453 0.25391 -0.64453 z M9.8145 17.2363 l0.068359 0 c0.15625 0 0.25065 0.11067 0.2832 0.33203 c-0.045576 0.22136 -0.14648 0.33203 -0.30273 0.33203 c-0.22136 -0.039063 -0.33203 -0.14974 -0.33203 -0.33203 c0.032549 -0.22136 0.12695 -0.33203 0.2832 -0.33203 z M9.6973 17.5488 l0 0.019541 c0 0.084639 0.039063 0.14975 0.11719 0.19532 l0.068359 0 c0.078125 -0.045576 0.11719 -0.11068 0.11719 -0.19532 l0 -0.019531 c-0.013018 -0.1237 -0.068359 -0.18555 -0.16602 -0.18555 c-0.091143 0.032549 -0.13672 0.094395 -0.13672 0.18554 z M0.78121 17.4512 c-0.032549 0.10417 -0.048828 0.1595 -0.048828 0.16602 l0.11719 0 l-0.048828 -0.16602 l-0.019531 0 z M6.8848 19.76561 l3.1445 0 l0 0.23438 l-3.1445 0 l0 -0.23438 z M14.863318750000001 6.045 c1.5495 0 2.5879 0.49806 3.1152 1.4941 c0.36458 0.75521 0.54688 1.4941 0.54688 2.2168 l-0.019531 0 c-1.0612 0.091143 -1.7871 0.13672 -2.1777 0.13672 c0 -0.51433 -0.1595 -0.94727 -0.47852 -1.2988 c-0.29948 -0.16927 -0.57617 -0.25391 -0.83008 -0.25391 l-0.39063 0 c-0.66406 0 -1.0677 0.25716 -1.2109 0.77148 c-0.032549 0.14974 -0.048828 0.26692 -0.048828 0.35156 l0 0.20508 c0 0.72917 0.38411 1.2565 1.1523 1.582 c0.065107 0.058594 0.59896 0.30273 1.6016 0.73242 c0.53386 0.24739 1.0286 0.55338 1.4844 0.91796 l0 0.019531 l-2.4512 0 l0 0.27344 l3.2324 0 l0 0.39063 l0.41016 0 l0 4.2383 l-0.80078 0 l0 2.1777 l-6.2109 0 l0 -2.1777 l-1.4648 0 l0 -1.4648 l0.83008 0 l0 -0.50781 l-0.83008 0 l0 -0.3418 l2.8418 0 l0 2.3145 l2.9102 0 l0 -3.4863 l-2.1777 0 l0 -1.1426 l-2.7051 0 l0 -0.27344 l1.3086 0 l0 -0.019531 c-1.1458 -0.76172 -1.7188 -1.8392 -1.7188 -3.2324 l0 -0.18555 c0 -1.1653 0.35808 -2.0508 1.0742 -2.6563 c0.65104 -0.52083 1.6536 -0.78125 3.0078 -0.78125 z M18.388718750000002 12.9199 l0.98633 0 l0 0.27344 l-0.98633 0 l0 -0.27344 z M9.38473875 15.849599999999999 l0.9375 0 l0 0.50781 l-0.9375 0 l0 -0.50781 z M15.64451875 15.849599999999999 l0.29296 -0.0000095367 c0.032549 0.0065136 0.048828 0.022793 0.048828 0.048838 l0 0.068359 l-0.25391 0 l0 0.087891 l0.22461 0 l0 0.068359 c0 0.032549 -0.013018 0.048828 -0.039063 0.048828 l-0.18555 0 l0 0.097656 l0.25391 0 l0 0.068359 c0 0.026045 -0.016279 0.039063 -0.048828 0.039063 l-0.29297 0 c-0.032549 0 -0.048828 -0.013018 -0.048828 -0.039063 l0 -0.43945 c0.0065136 -0.032549 0.022793 -0.048828 0.048838 -0.048828 z M15.52731875 16.543 l0.087871 0.0000095367 c0.013018 0 0.068359 0.058594 0.16602 0.17578 c0.045576 -0.11719 0.081387 -0.17578 0.10743 -0.17578 l0.068359 0 c0.032549 0 0.048828 0.013018 0.048828 0.039063 c-0.13672 0.15625 -0.20508 0.31901 -0.20508 0.48828 l-0.068359 0 c-0.032549 0 -0.055332 -0.091143 -0.06835 -0.27344 c-0.091143 -0.1237 -0.13672 -0.20834 -0.13672 -0.25392 z M15.458918749999999 17.2266 l0.087881 -0.0000095367 c0.039063 0 0.078125 0.10091 0.11719 0.30273 l0.048828 0 c0.039063 -0.20183 0.074873 -0.30273 0.10742 -0.30273 l0.097656 0 c0.026045 0.0065136 0.039063 0.022793 0.039063 0.048838 l0 0.42969 c0 0.032549 -0.013018 0.048828 -0.039063 0.048828 l-0.068359 0 l0 -0.29297 l-0.029297 0 l-0.087891 0.29297 l-0.068359 0 c-0.032549 0 -0.071611 -0.097656 -0.11719 -0.29297 l-0.019531 0 l0 0.29297 l-0.068359 0 c-0.032549 0 -0.048828 -0.016279 -0.048828 -0.048828 l0 -0.42969 c0.0065136 -0.032549 0.022793 -0.048828 0.048838 -0.048828 z M18.13461875 17.9395 l0.23438 0 c0.1237 0 0.18555 0.061846 0.18555 0.18555 c-0.032549 0 -0.048828 0.013018 -0.048828 0.039063 c0.045576 0.058594 0.068359 0.11394 0.068359 0.16602 c-0.039063 0.091143 -0.1237 0.13672 -0.25391 0.13672 l-0.13672 0 c-0.032549 0 -0.048828 -0.016279 -0.048828 -0.048828 l0 -0.47852 z M18.271418750000002 18.0566 l0 0.087891 l0.097656 0 c0.026045 0 0.039063 -0.016279 0.039063 -0.048828 l0 -0.039063 l-0.13672 0 z M18.271418750000002 18.2324 l0 0.11719 l0.11719 0 c0.032549 0 0.048828 -0.016279 0.048828 -0.048828 l0 -0.019531 c0 -0.032549 -0.016279 -0.048828 -0.048828 -0.048828 l-0.11719 0 z M18.13461875 18.623 l0.097656 0 c0.032549 0 0.10091 0.10742 0.20508 0.32227 l0.019531 0 l0 -0.32227 l0.11719 0 l0 0.47852 c0 0.032549 -0.016279 0.048828 -0.048828 0.048828 l-0.048828 0 c-0.013018 0 -0.087891 -0.097656 -0.22461 -0.29297 l0 0.24414 c0 0.032549 -0.016279 0.048828 -0.048828 0.048828 l-0.019531 0 c-0.032549 0 -0.048828 -0.016279 -0.048828 -0.048828 l0 -0.47852 z M19.980464375 5.996 l2.7539 -0.0000095367 l0 2.6367 c0 0.87891 -0.016279 1.8262 -0.048828 2.8418 l0 0.029297 l0.029297 0 c0.22786 -0.42969 0.84635 -1.5364 1.8555 -3.3203 c0.52083 -0.90495 0.78125 -1.5886 0.78125 -2.0508 l0 -0.13672 l2.8223 0 l0 0.068359 c0 0.89844 -0.36784 1.8782 -1.1035 2.9395 l-1.6797 2.4316 l1.6504 3.5059 l1.4844 0 l0 0.41992 l-1.6699 0 l0 0.029297 c0.26692 0.57292 0.43945 0.91797 0.51758 1.0352 l0.30273 0 l0 1.2695 l0.42969 0 l0 2.2852 c-0.48177 0.013018 -0.83658 0.019531 -1.0645 0.019531 l-0.68359 0 c-0.24089 0 -0.56967 -0.0065136 -0.98633 -0.019531 l0 -1.5332 l-0.61523 0 l0 -2.0215 l-0.35156 0 l-0.37109 -1.0645 l2.793 0 l0 -0.41992 l-2.5586 0 c0 -0.032549 -0.14974 -0.50455 -0.44922 -1.416 l-0.029297 0 c-0.15625 0.29948 -0.46875 0.77148 -0.9375 1.416 l1.1816 0 l0 0.41992 l-1.2988 0 l0 0.68359 l-0.16602 0 l0 3.2031 l0.16602 0 l0 0.70313 c0 0.032549 -0.016279 0.048828 -0.048828 0.048828 l-2.6563 0 c-0.032549 0 -0.048828 -0.016279 -0.048828 -0.048828 l0 -1.1035 l1.25 0 l0 -0.46875 l-1.25 0 l0 -12.383 z M27.109384375 14.2285 l0.14649 0 c0.039063 0 0.084639 0.12695 0.13672 0.38086 c0.026045 0 0.074873 -0.12695 0.14648 -0.38086 l0.20508 0 l0 0.5957 c0 0.032549 -0.013018 0.048828 -0.039063 0.048828 l-0.097656 0 l0 -0.38086 l-0.019531 0 c0 0.026045 -0.039063 0.153 -0.11719 0.38086 l-0.078125 0 c-0.045576 0 -0.091152 -0.11067 -0.13673 -0.33203 l-0.029297 0 l0 0.2832 c0 0.032549 -0.013018 0.048828 -0.039063 0.048828 l-0.078125 0 c-0.026045 0 -0.039063 -0.016279 -0.039063 -0.048828 l0 -0.54688 c0 -0.032549 0.013018 -0.048828 0.039063 -0.048828 z M21.113284375 14.9414 l0 0.41991 l1.6016 0 c0 -0.05208 0.039063 -0.19205 0.11719 -0.41991 l-1.7188 0 z M24.785184375 18.5449 l0.13674 0 c0.019531 0 0.068359 0.05208 0.14648 0.15625 c0.058594 -0.10417 0.097656 -0.15625 0.11719 -0.15625 l0.13672 0 l0 0.019531 l-0.18555 0.2832 c0.032549 0.0065136 0.10416 0.10742 0.21483 0.30273 l-0.19531 0 l-0.087891 -0.18555 c-0.097656 0.1237 -0.153 0.18555 -0.16602 0.18555 l-0.14648 0 c0.11067 -0.19531 0.18229 -0.29622 0.21483 -0.30273 l-0.18555 -0.2832 l0 -0.019531 z"></path>
    </g>
    <g id="SvgjsG6869" featurekey="inlineSymbolFeature-0"
       transform="matrix(1.0285714285714285,0,0,1.0285714285714285,78.54285714285714,-21.599999999999998)"
       fill="url(#SvgjsLinearGradient6878)">
        <g xmlns="http://www.w3.org/2000/svg">
            <circle cx="30" cy="35" r="4"></circle>
            <path d="M70,21H30c-7.73,0-14,6.27-14,14s6.27,14,14,14h40c7.73,0,14-6.27,14-14S77.73,21,70,21z M30,45c-5.52,0-10-4.48-10-10   s4.48-10,10-10s10,4.48,10,10S35.52,45,30,45z M70,45c-5.52,0-10-4.48-10-10s4.48-10,10-10s10,4.48,10,10S75.52,45,70,45z"></path>
            <circle cx="70" cy="35" r="4"></circle>
            <path d="M68,66H32c-4.96,0-9,4.04-9,9s4.04,9,9,9h36c4.96,0,9-4.04,9-9S72.96,66,68,66z M29,80.19c-1.52-0.88-2.61-2.4-2.91-4.19   H29V80.19z M29,74h-2.91c0.3-1.79,1.39-3.31,2.91-4.19V74z M37,81h-5c-0.34,0-0.67-0.04-1-0.09V76h6V81z M37,74h-6v-4.91   c0.33-0.05,0.66-0.09,1-0.09h5V74z M45,81h-6v-5h6V81z M45,74h-6v-5h6V74z M53,81h-6v-5h6V81z M53,74h-6v-5h6V74z M61,81h-6v-5h6   V81z M61,74h-6v-5h6V74z M69,80.91C68.67,80.96,68.34,81,68,81h-5v-5h6V80.91z M69,74h-6v-5h5c0.34,0,0.67,0.04,1,0.09V74z    M71,80.19V76h2.91C73.61,77.79,72.52,79.31,71,80.19z M71,74v-4.19c1.52,0.88,2.61,2.4,2.91,4.19H71z"></path>
        </g>
    </g>
    <g id="SvgjsG6870" featurekey="nameRightFeature-0"
       transform="matrix(2.570595758068536,0,0,2.570595758068536,173.30179082889677,-0.41316175479168216)"
       fill="#fa0820">
        <path d="M4.5507775 6.006 l8.2031 0 l0 2.334 l-2.7148 0 l0 9.6777 l1.2305 0 l0 0.2832 l-1.2305 0 l0 1.0645 l-0.73242 0 l0 0.37109 l0.51758 0 l0 0.26367 l-2.4902 0 c-0.032549 0 -0.048828 -0.016279 -0.048828 -0.048828 l0 -11.611 l-2.7344 0 l0 -2.334 z M9.0722375 18.0176 l0 0.2832 l0.94727 0 l0 -0.2832 l-0.94727 0 z M12.3632775 5.996 l2.6953 0 l0 7.4023 l-1.2695 0 l0 0.40039 l1.2695 0 l0 1.377 c0 1.263 0.22461 2.002 0.67383 2.2168 c0.22786 0.13672 0.51106 0.20508 0.84961 0.20508 l0.83008 0 l0 -2.4414 l0.74219 0 l0 -9.1602 l2.6758 0 l0 8.6035 l-0.9668 0 l0 0.625 l0.9668 0 c-0.013018 0.20833 -0.019531 0.36133 -0.019531 0.45898 l0 2.7441 l-1.4063 0 l0 1.5723 l-6.2598 0 l0 -1.9336 l-0.57617 0 l0 -5.791 l-0.20508 0 l0 -6.2793 z M15.0586375 13.398399999999999 l1.5234 0 l0 0.40039 l-1.5234 0 l0 -0.40039 z M19.5410375 18.5449 l0.087881 0 c0.039063 0 0.078125 0.10742 0.11719 0.32227 l0.019531 0 c0.065107 -0.1888 0.097656 -0.29622 0.097656 -0.32227 l0.13672 0 c-0.097656 0.35808 -0.16602 0.53711 -0.20508 0.53711 l-0.068359 0 c-0.032549 0 -0.094395 -0.17903 -0.18554 -0.53711 z M21.845699375 6.006 l3.9746 0.0000095367 c1.7644 0 2.8874 0.44597 3.3691 1.3379 c0.27344 0.46875 0.41016 1.1067 0.41016 1.9141 l0 0.97656 c0 0.91797 -0.40039 1.6602 -1.2012 2.2266 c0.27344 0.045576 0.61849 0.25391 1.0352 0.625 l0.30273 0 c0.39714 0.40364 0.6543 0.79427 0.77148 1.1719 c0.032549 0.13021 0.048828 0.20182 0.048828 0.21483 l0.38086 0 l0 0.23438 l-1.2695 0 l0 -0.23438 l-2.6074 0 l0 -0.74219 l-2.5586 0 l0 4.0723 l1.6016 0 l0 -0.29297 l0.95703 0 l0 -2.8027 l2.6074 0 l0 2.4707 l0.29297 0 l0 1.5527 l-0.86914 0 l0 0.36133 l0.86914 0 l0 0.64453 l-3.3105 0 l0 0.26367 l-3.6133 0 l0 -0.26367 l-0.78125 0 l0 -2.1484 l1.0742 0 l0 -0.57617 l-1.0742 0 c-0.019531 -1.0938 -0.029297 -1.9075 -0.029297 -2.4414 l0 -1.0352 l-0.9082 0 l0 -0.26367 l0.9082 0 l0 -0.54688 l-0.42969 0 l0 -6.6699 c0.0065136 -0.032549 0.022793 -0.048828 0.048838 -0.048828 z M24.550759375 8.369 l-0.0000095367 3.4668 l0.5957 0 c0.70313 0 1.1653 -0.11719 1.3867 -0.35156 c0.22136 -0.1888 0.33203 -0.69986 0.33203 -1.5332 l0 -0.048828 c0 -0.71614 -0.11067 -1.1458 -0.33203 -1.2891 c-0.14974 -0.16276 -0.6608 -0.24414 -1.5332 -0.24414 l-0.44922 0 z M22.255839375 13.2715 l0 0.26367 l1.2891 0 l0 -0.26367 l-1.2891 0 z M21.728499375 13.584 l0.47852 -0.0000095367 l0 0.097656 c0 0.032549 -0.016279 0.048828 -0.048828 0.048828 l-0.29297 0 l0 0.097656 l0.26367 0 c0.032549 0.0065136 0.048828 0.022793 0.048828 0.048838 l0 0.048828 c0 0.032549 -0.016279 0.048828 -0.048828 0.048828 l-0.26367 0 l0 0.11719 l0.3418 0 l0 0.097656 c0 0.026045 -0.016279 0.039063 -0.048828 0.039063 l-0.42969 0 l0 -0.64453 z M25.742159375 14.4727 l1.3184 0 l0 0.23438 l-1.3184 0 l0 -0.23438 z M30.048859375 14.7559 l0.078106 -0.0000095367 c0.032549 0.0065136 0.048828 0.022793 0.048828 0.048838 l0 0.41016 c-0.026045 0.14323 -0.097656 0.21484 -0.21484 0.21484 c-0.14974 -0.026045 -0.22461 -0.097656 -0.22461 -0.21484 l0 -0.029297 c0.0065136 -0.026045 0.022793 -0.039063 0.048838 -0.039063 l0.048828 0 c0.032549 0 0.058594 0.045576 0.078125 0.13672 l0.087891 0 l0 -0.47852 c0.0065136 -0.032549 0.022793 -0.048828 0.048838 -0.048828 z M29.833959375 15.5957 l0.1953 -0.0000095367 c0.22136 0 0.33203 0.12044 0.33203 0.36133 c0 0.16276 -0.10417 0.25717 -0.3125 0.28321 l-0.26367 0 l0 -0.5957 c0.0065136 -0.032549 0.022793 -0.048828 0.048838 -0.048828 z M29.960959375 15.7422 l0 0.36133 l0.087891 0 c0.097656 0 0.14648 -0.048828 0.14648 -0.14648 l0 -0.048828 c0 -0.11067 -0.055342 -0.16602 -0.16602 -0.16602 l-0.068359 0 z M29.833959375 16.4355 l0.36132 -0.0000095367 c0.032549 0.0065136 0.048828 0.022793 0.048828 0.048838 l0 0.097656 l-0.2832 0 l0 0.11719 l0.23438 0 l0 0.11719 l-0.23438 0 l0 0.21484 c0 0.032549 -0.016279 0.048828 -0.048828 0.048828 l-0.12695 0 l0 -0.5957 c0.0065136 -0.032549 0.022793 -0.048828 0.048838 -0.048828 z M26.484259375 16.8164 l0.50781 0 l0 0.11719 l-0.3125 0.39063 l0.33203 0 l0 0.087891 c0 0.032549 -0.016279 0.048828 -0.048828 0.048828 l-0.44922 0 c-0.032549 0 -0.048828 -0.016279 -0.048828 -0.048828 l0 -0.068359 l0.3125 -0.38086 l-0.24414 0 c-0.032549 0 -0.048828 -0.016279 -0.048828 -0.048828 l0 -0.097656 z M24.570259375 17.2266 l0.029287 0.0000095367 c0.29948 0.091143 0.44922 0.15299 0.44922 0.18554 l0 0.048828 c-0.032549 0.045576 -0.18229 0.11719 -0.44921 0.21484 l-0.029297 -0.048828 l0 -0.019531 c0 -0.045576 0.097656 -0.094404 0.29297 -0.14648 c0 -0.032549 -0.097656 -0.078125 -0.29297 -0.13672 l0 -0.097656 z M32.21679375 6.016 l6.8945 0 l0 2.2852 c0 0.032549 -0.016279 0.048828 -0.048828 0.048828 l-4.0918 0 l0 3.0371 l3.6719 0 l0 0.019531 c0 0.091143 -0.016279 0.58594 -0.048828 1.4844 c-0.013018 0 -0.019531 0.0097656 -0.019531 0.029297 l0.16602 0 l0 0.70313 l-3.1836 0 l0 2.8711 l-0.84961 0 l0 0.2832 l0.84961 0 l0 0.86914 l3.6035 0 l0 0.33203 l-0.2832 0 l0 1.7188 l-4.3066 0 l0 0.30273 l-2.0508 0 l0 -5.0098 l-0.30273 0 l0 -1.7676 l-2.2363 0 l0 -0.30273 l2.2363 0 l0 -6.9043 z M32.23629375 12.9199 l0 0.30273 l1.1523 0 l0 -0.30273 l-1.1523 0 z M35.77149375 16.9434 l0.16602 -0.0000095367 l0 0.23438 l0.019531 0 c0 -0.045576 0.071611 -0.1237 0.21484 -0.23438 l0.16602 0 l-0.23438 0.25391 l0.25391 0.38086 l-0.16602 0 c-0.1237 -0.17578 -0.19206 -0.26367 -0.20508 -0.26367 c-0.032549 0.0065136 -0.048828 0.022793 -0.048828 0.048838 l0 0.21484 l-0.16602 0 l0 -0.63477 z M36.59179375 16.9434 l0.33203 0 c0.10417 0 0.17578 0.061846 0.21484 0.18555 c0 0.019531 -0.032549 0.074873 -0.097656 0.16602 c0.045576 0 0.078125 0.094404 0.097656 0.2832 l-0.11719 0 c-0.032549 0 -0.058594 -0.078125 -0.078125 -0.23438 l-0.18555 0 l0 0.23438 l-0.16602 0 l0 -0.63477 z M37.65629375 16.9434 l0.0879 -0.0000095367 c0.14323 0 0.23112 0.094404 0.26367 0.2832 l0 0.087891 c0 0.05208 -0.022783 0.10742 -0.068359 0.16602 l0 0.029297 c0.045576 0 0.068359 0.013018 0.068359 0.039063 s-0.022783 0.05209 -0.068359 0.078135 c-0.026045 0 -0.05209 -0.026045 -0.078135 -0.078125 l-0.11719 0.029297 l-0.087891 0 c-0.15625 0 -0.24414 -0.11719 -0.26367 -0.35156 c0.045576 -0.1888 0.13347 -0.2832 0.26367 -0.2832 z M37.55859375 17.2266 l0 0.068369 c0 0.11067 0.055342 0.16602 0.16602 0.16602 l0.019531 0 l0 -0.029297 l-0.039063 0 l0 -0.019531 c0 -0.026045 0.022783 -0.048828 0.068359 -0.068359 l0.068359 0.039063 c0 -0.0065136 0.0065136 -0.05209 0.019531 -0.13673 c-0.0065136 -0.1237 -0.068359 -0.18555 -0.18555 -0.18555 c-0.078125 0.019531 -0.11719 0.074873 -0.11719 0.16602 z M36.75779375 17.0801 l0 0.14648 l0.16602 0 c0.032549 0 0.048828 -0.016279 0.048828 -0.048828 l0 -0.048828 c0 -0.032549 -0.016279 -0.048828 -0.048828 -0.048828 l-0.16602 0 z M39.02339375 18.1152 l0.13672 0 l0 0.029297 c0 0.27995 -0.022783 0.41992 -0.068359 0.41992 s-0.068359 -0.10091 -0.068359 -0.30273 l0 -0.14648 z M39.02339375 18.584 l0.13672 0 l0 0.14648 l-0.13672 0 l0 -0.14648 z"></path>
    </g>
</svg>