<svg width="463.79999999999995" height="147.05853658536583" viewBox="0 0 410 130" class="looka-1j8o68f"><defs id="SvgjsDefs15820"><linearGradient id="SvgjsLinearGradient15827"><stop id="SvgjsStop15828" stop-color="#7d141d" offset="0"></stop><stop id="SvgjsStop15829" stop-color="#ff1e27" offset="1"></stop></linearGradient><linearGradient id="SvgjsLinearGradient15830"><stop id="SvgjsStop15831" stop-color="#616161" offset="0"></stop><stop id="SvgjsStop15832" stop-color="#e6e7e8" offset="0.5"></stop><stop id="SvgjsStop15833" stop-color="#616161" offset="1"></stop></linearGradient></defs><g id="SvgjsG15821" featurekey="rootContainer" transform="matrix(1,0,0,1,0,0)" fill="#111111"><rect xmlns="http://www.w3.org/2000/svg" width="410" height="130" rx="10" ry="10"></rect></g><g id="SvgjsG15822" featurekey="S6ay6y-0" transform="matrix(1.0995031777240933,0,0,1.0995031777240933,1.9538584208466112,10.131958560499086)" fill="url(#SvgjsLinearGradient15827)"><path xmlns="http://www.w3.org/2000/svg" d="M82.547,32.666c-1.638-5.632-5.479-11.338-10.536-15.649c-4.301-3.669-11.534-8.042-21.56-8.042  c-8.413,0-17.009,3.516-23.583,9.644c-6.645,6.194-10.455,14.351-10.455,22.38c0,7.512,2.377,14.963,6.871,21.541  c2.367,3.467,4.741,5.85,6.008,7.012v13.904c0,1.204,0.867,2.234,2.055,2.439l29.379,5.095c0.142,0.024,0.282,0.037,0.424,0.037  c0.578,0,1.145-0.203,1.594-0.581c0.56-0.471,0.883-1.165,0.883-1.895V76.106l14.653-0.879c1.315-0.078,2.341-1.174,2.328-2.495  l-0.146-16.096h5.821c0.781,0,1.518-0.369,1.984-0.996c0.469-0.625,0.612-1.433,0.391-2.183  C88.624,53.34,85.231,41.892,82.547,32.666z M50.845,51.162c-0.657,0.583-1.414,0.874-2.275,0.874c-0.889,0-1.663-0.291-2.326-0.864  c-0.664-0.571-0.996-1.379-0.996-2.412c0-0.923,0.322-1.697,0.963-2.319c0.641-0.625,1.429-0.938,2.359-0.938  c0.916,0,1.691,0.312,2.317,0.938c0.626,0.623,0.94,1.396,0.94,2.319C51.827,49.775,51.499,50.581,50.845,51.162z M59.007,30.923  c-0.503,0.938-1.1,1.738-1.793,2.412c-0.691,0.681-1.934,1.821-3.726,3.425c-0.495,0.449-0.892,0.847-1.191,1.191  c-0.298,0.339-0.521,0.654-0.667,0.938c-0.146,0.286-0.258,0.569-0.339,0.852c-0.078,0.283-0.199,0.781-0.358,1.494  c-0.277,1.519-1.145,2.275-2.602,2.275c-0.758,0-1.396-0.247-1.912-0.742c-0.519-0.498-0.779-1.23-0.779-2.209  c0-1.223,0.192-2.283,0.57-3.179c0.38-0.894,0.882-1.682,1.508-2.361c0.627-0.674,1.471-1.479,2.537-2.415  c0.932-0.818,1.605-1.433,2.02-1.848c0.416-0.415,0.768-0.876,1.049-1.387c0.285-0.51,0.428-1.062,0.428-1.66  c0-1.167-0.433-2.146-1.301-2.952c-0.867-0.803-1.986-1.199-3.355-1.199c-1.603,0-2.781,0.4-3.54,1.211  c-0.758,0.806-1.399,1.997-1.923,3.569c-0.496,1.65-1.437,2.476-2.82,2.476c-0.816,0-1.506-0.288-2.066-0.864  c-0.56-0.576-0.84-1.201-0.84-1.87c0-1.387,0.443-2.788,1.332-4.209c0.888-1.418,2.187-2.595,3.89-3.53  c1.706-0.93,3.694-1.396,5.968-1.396c2.113,0,3.977,0.388,5.596,1.172c1.616,0.776,2.866,1.836,3.749,3.179  c0.88,1.338,1.321,2.798,1.321,4.37C59.761,28.906,59.509,29.99,59.007,30.923z"></path></g><g id="SvgjsG15823" featurekey="nameFeature-0" transform="matrix(4.766558323423661,0,0,4.766558323423661,117.14006830161038,7.696408492117687)" fill="url(#SvgjsLinearGradient15830)"><path d="M7.94 9.86 c0 0.44 -0.02 0.88 -0.02 1.34 c0 0.28 -0.02 0.62 -0.02 0.9 c0 0.66 -0.04 1.3 -0.04 2.54 c0 0.9 0.02 1.52 0.02 2 c0 0.34 -0.02 1.34 -0.02 1.68 c0 0.36 0.02 0.82 0.02 1.18 c0 0.14 0 0.48 -0.2 0.48 c-0.1 0 -0.3 -0.02 -0.4 -0.02 c-0.36 0 -0.72 0.04 -1.2 0.04 c-0.18 0 -0.28 -0.04 -0.28 -0.26 c0 -0.14 0.04 -0.5 0.04 -0.64 c0.02 -1.06 -0.04 -2.16 -0.04 -3.58 c0 -0.06 0 -0.26 -0.02 -0.36 c-0.02 -0.04 -0.2 -0.04 -0.26 -0.04 l-1.26 0 c-0.34 0 -0.68 -0.02 -1.08 -0.02 c-0.1 0 -0.22 0 -0.3 0.02 c-0.02 0.16 -0.04 0.3 -0.04 1.3 c0 0.72 0.02 1.32 0.02 2.04 c0 0.22 0.04 0.78 0.04 0.96 c0 0.1 0 0.2 -0.02 0.3 c-0.06 0.22 -0.2 0.24 -0.44 0.24 c-0.14 0 -0.64 -0.02 -1.04 -0.02 c-0.1 0 -0.34 0.02 -0.46 0.02 s-0.18 0 -0.24 -0.04 c-0.08 -0.04 -0.1 -0.16 -0.1 -0.9 c0 -1.58 0.06 -3.18 0.06 -4.76 c0 -1.12 -0.02 -2.26 -0.04 -3.38 c-0.02 -0.58 -0.02 -1.18 -0.02 -1.76 c0 -0.92 0.08 -1.88 0.54 -2.8 c0.36 -0.72 0.88 -1.34 1.56 -1.8 c0.44 -0.3 1.08 -0.52 1.64 -0.52 c0.14 0 0.28 0.02 0.42 0.04 c0.68 0.16 1.3 0.52 1.76 1.02 c0.6 0.62 0.88 1.36 1.14 2.16 c0.26 0.86 0.28 1.72 0.28 2.64 z M7.58 11.72 c0.02 -0.42 0.02 -0.84 0.04 -1.26 c-0.06 0.24 -0.22 0.36 -0.36 0.6 c-0.06 0.12 -0.22 0.3 -0.32 0.3 c-0.12 0 -0.22 -0.14 -0.32 -0.26 s-0.2 -0.22 -0.42 -0.44 c-0.02 0.58 -0.04 0.86 -0.04 1.46 l0 1.02 c0 0.1 -0.02 0.22 -0.08 0.28 c-0.08 0.02 -0.2 0.02 -0.34 0.02 c-0.94 0 -1.9 0.02 -2.86 0.02 c-0.14 0 -0.36 -0.02 -0.42 -0.1 s-0.06 -0.56 -0.06 -0.8 c0 -0.56 -0.04 -1 -0.08 -1.56 c-0.02 -0.18 -0.04 -0.2 -0.04 -0.4 c-0.08 0.24 -0.16 0.26 -0.26 0.5 c-0.04 0.12 -0.2 0.36 -0.34 0.36 c-0.08 0 -0.26 -0.16 -0.32 -0.28 c-0.1 -0.18 -0.24 -0.34 -0.4 -0.46 c0.02 0.4 0.02 0.82 0.02 1.24 c0 0.92 0.02 1.84 0.02 2.74 c0 0.74 -0.02 1.46 -0.02 2.18 c0 0.52 -0.04 1.04 -0.04 1.56 c0 0.38 0.02 0.8 0.02 1.2 c0.18 -0.02 0.36 -0.02 0.54 -0.02 s0.34 0.02 0.52 0.02 c0.1 0 0.42 0 0.54 -0.04 l0 -0.4 c0 -0.2 -0.02 -0.52 -0.02 -0.72 c0 -0.92 -0.04 -1.82 -0.04 -2.74 l0 -0.68 c0 -0.16 -0.02 -0.28 0.18 -0.28 c0.42 0 1.1 0.02 1.66 0.02 c0.38 0 0.78 -0.02 1.18 -0.02 c0.12 0 0.26 0 0.38 0.02 c0.1 0.02 0.24 0.12 0.24 0.28 c0 0.2 -0.02 0.48 -0.02 0.66 c0 1.32 0.04 2.64 0.02 3.96 c0.32 -0.04 0.64 -0.04 0.96 -0.04 c0.06 0 0.3 0.02 0.42 0.02 c0.02 -0.1 0.02 -0.34 0.02 -0.4 c0 -0.3 -0.02 -0.8 -0.02 -1.04 c0 -0.7 0.02 -0.96 0.02 -1.66 c0 -0.76 -0.02 -1.52 -0.02 -2.28 c0 -0.44 0 -0.84 0.02 -1.3 c0 -0.4 0.02 -0.86 0.04 -1.28 z M5.82 13.120000000000001 c0 -0.86 0.04 -1.7 0.04 -3.66 c0 -0.56 -0.04 -1.12 -0.16 -1.64 c-0.16 -0.68 -0.64 -1.66 -1.32 -1.66 c-0.36 0 -0.68 0.12 -0.92 0.38 c-0.3 0.3 -0.5 0.62 -0.66 1.08 c-0.14 0.36 -0.2 0.78 -0.2 1.62 c0 0.38 0 0.76 0.02 1.12 s0.06 0.74 0.08 1.1 c0.02 0.56 0.06 1.12 0.06 1.68 c1.02 0 2.02 -0.02 3.06 -0.02 z M2.04 7.4 c0.08 -0.14 0.18 -0.36 0.3 -0.5 c0 -0.02 -0.08 -0.04 -0.1 -0.04 s-0.16 0.3 -0.2 0.54 z M2 9.82 c0 -0.08 0 -0.2 -0.02 -0.28 c-0.02 0.1 -0.06 0.28 -0.06 0.38 z M6.96 10.54 c-0.02 -0.04 -0.24 -0.12 -0.28 -0.12 l0.18 0.18 z M5.02 5.16 c-0.08 -0.02 -0.22 -0.04 -0.28 -0.04 c0.04 0.04 0.14 0.12 0.2 0.12 c0.02 0 0.08 -0.06 0.08 -0.08 z M15.32 8.64 c0 0.02 0.04 0.02 0.06 0.04 l0 -0.2 c-0.02 0.06 -0.06 0.14 -0.06 0.16 z M14.66 9 c0 -0.04 -0.12 -0.16 -0.14 -0.18 c0 0.02 0.02 0.14 0.04 0.16 s0.08 0.02 0.1 0.02 z M14.52 8.16 c0 -0.02 0.02 -0.08 0.02 -0.1 s-0.04 -0.12 -0.06 -0.12 c0 0.02 0.02 0.18 0.04 0.22 z M14.420000000000002 6.84 l0.06 -0.06 l-0.08 -0.04 z M10.46 8.36 c0 -0.08 -0.1 -0.18 -0.18 -0.22 c0.02 0.06 0.02 0.12 0.06 0.16 z M9.780000000000001 7.02 c-0.02 0.04 -0.06 0.22 -0.06 0.28 c0.04 -0.04 0.08 -0.1 0.08 -0.12 s-0.02 -0.14 -0.02 -0.16 z M10.32 5.880000000000001 c0.02 -0.08 0.1 -0.24 0.12 -0.3 c-0.04 0.04 -0.18 0.18 -0.2 0.26 z M9.440000000000001 9.4 l0.02 -0.16 l-0.06 -0.06 z M10.860000000000001 10.84 c-0.04 -0.08 -0.06 -0.18 -0.1 -0.26 c-0.02 0.16 -0.16 0.28 -0.26 0.48 c-0.04 0.08 -0.2 0.32 -0.26 0.32 c-0.2 0 -0.44 -0.28 -0.6 -0.42 c-0.06 -0.04 -0.18 -0.16 -0.28 -0.26 c0.06 0.38 0.16 0.78 0.32 1.04 c0.08 0.16 0.18 0.32 0.28 0.46 c0.44 0.56 1.04 0.78 1.68 1.08 c0.7 0.34 1.36 0.62 1.92 1.18 c0.14 0.14 0.46 0.7 0.58 1 c0.06 0.14 0.14 0.54 0.14 0.84 c0 0.5 -0.14 1.06 -0.4 1.48 c-0.18 0.28 -0.46 0.46 -0.76 0.6 c-0.14 0.04 -0.28 0.08 -0.44 0.08 c-0.48 0 -1.02 -0.2 -1.3 -0.6 c-0.32 -0.46 -0.46 -1.06 -0.56 -1.62 c-0.02 -0.18 -0.1 -0.18 -0.28 -0.18 c-0.36 0 -0.8 0.04 -1.18 0.04 c0.02 0.56 0.18 1.14 0.36 1.66 c0.18 0.54 0.42 0.96 0.82 1.38 c0.28 0.3 0.7 0.48 1.12 0.6 c0.22 0.1 0.56 0.12 0.88 0.12 c0.7 -0.02 1.54 -0.3 1.88 -0.6 l0.54 -0.54 c0.14 -0.2 0.24 -0.42 0.32 -0.64 c0.22 -0.56 0.38 -1.2 0.38 -1.86 c0 -1.28 -0.68 -2.5 -1.7 -3.24 c-0.98 -0.72 -2.58 -0.9 -3.1 -2.14 z M16.060000000000002 8.8 c0 0.16 -0.02 0.58 -0.14 0.58 c-0.1 0 -0.46 0.02 -0.54 0.02 c-0.16 0.02 -0.66 -0.04 -0.86 -0.04 c-0.1 0 -0.12 0.02 -0.28 0.02 c-0.1 0 -0.18 -0.02 -0.22 -0.06 c-0.06 -0.06 -0.06 -0.16 -0.06 -0.26 c0 -0.24 0.02 -0.44 0.02 -0.66 c0 -0.16 -0.02 -0.34 -0.04 -0.52 c-0.04 -0.3 -0.12 -0.5 -0.2 -0.8 c-0.12 -0.38 -0.38 -0.86 -0.7 -1.04 c-0.18 -0.1 -0.38 -0.14 -0.58 -0.14 c-0.46 0 -0.9 0.26 -1.18 0.68 c-0.14 0.2 -0.26 0.64 -0.28 0.82 c-0.02 0.14 -0.08 0.56 -0.08 0.72 c0 0.24 0.02 0.42 0.02 0.7 c0 0.44 0 1.28 0.08 1.56 c0.04 0.14 0.2 0.5 0.26 0.6 c0.06 0.12 0.54 0.6 0.9 0.78 c0.44 0.22 0.88 0.4 1.32 0.62 c0.4 0.18 0.8 0.5 1.1 0.74 c0.22 0.16 0.44 0.48 0.62 0.74 c0.16 0.22 0.34 0.48 0.44 0.74 c0.14 0.3 0.26 0.76 0.28 1.08 c0.02 0.18 0.04 0.42 0.04 0.64 c0 0.48 -0.06 0.98 -0.22 1.5 c-0.16 0.46 -0.4 0.9 -0.72 1.3 c-0.38 0.44 -0.82 0.74 -1.36 0.88 c-0.32 0.1 -0.66 0.16 -0.98 0.16 c-0.44 0 -0.96 -0.04 -1.38 -0.18 c-0.28 -0.12 -0.54 -0.22 -0.8 -0.42 c-0.12 -0.08 -0.24 -0.22 -0.32 -0.3 c-0.48 -0.5 -0.78 -1.22 -0.96 -1.86 c-0.12 -0.46 -0.22 -0.9 -0.22 -1.38 c0 -0.12 0.04 -0.2 0.24 -0.2 c0.5 -0.02 1 -0.04 1.46 -0.04 c0.26 0 0.38 0.06 0.42 0.36 c0.02 0.18 0.04 0.38 0.08 0.54 c0.08 0.26 0.24 0.74 0.4 0.98 c0.2 0.32 0.68 0.5 1.02 0.5 c0.32 0 0.48 -0.1 0.72 -0.26 c0.18 -0.12 0.36 -0.46 0.4 -0.58 c0.12 -0.32 0.2 -0.7 0.2 -1.16 c-0.02 -0.48 -0.26 -0.98 -0.58 -1.36 c-0.26 -0.34 -0.8 -0.68 -1.08 -0.82 c-0.3 -0.14 -0.6 -0.34 -0.98 -0.5 c-0.36 -0.16 -0.72 -0.3 -1.06 -0.54 c-0.96 -0.68 -1.2 -1.7 -1.26 -2.98 c-0.02 -0.48 -0.02 -1.08 -0.02 -1.56 c0 -0.36 0 -0.74 0.06 -1.1 c0.12 -0.86 0.38 -1.72 0.92 -2.38 c0.66 -0.8 1.66 -1.08 2.66 -1.08 c0.58 0 1.22 0.16 1.7 0.52 c0.24 0.2 0.44 0.38 0.64 0.64 c0.14 0.16 0.24 0.28 0.34 0.44 c0.06 0.1 0.1 0.22 0.16 0.32 c0.1 0.14 0.1 0.24 0.18 0.4 c0.08 0.2 0.16 0.48 0.2 0.68 c0.06 0.3 0.14 0.58 0.16 0.86 c0.02 0.24 0.06 0.7 0.06 1.1 z M18.54 10.06 c0.02 -0.02 0.06 -0.04 0.08 -0.06 l0 -0.2 c-0.04 0.04 -0.06 0.18 -0.08 0.26 z M18.32 6.08 c0.02 -0.02 0.06 -0.18 0.06 -0.22 c-0.02 0 -0.08 0.06 -0.08 0.08 s0 0.12 0.02 0.14 z M17.94 9.72 c0 -0.04 -0.02 -0.16 -0.02 -0.2 c-0.02 0.06 -0.06 0.28 -0.06 0.32 c0.02 0 0.06 -0.1 0.08 -0.12 z M21.78 7.460000000000001 c0 0.06 0 0.18 0.02 0.22 c0.06 -0.02 0.08 -0.02 0.08 -0.06 s-0.06 -0.12 -0.1 -0.16 z M22.46 5.9 c0.08 0 0.2 -0.06 0.22 -0.14 c0.02 -0.04 0.02 -0.12 0.02 -0.16 c-0.06 0.04 -0.2 0.22 -0.24 0.3 z M21.12 10.18 c-0.12 0.04 -0.2 0.1 -0.2 0.12 c0 0.04 0.04 0.12 0.04 0.12 c0.06 -0.06 0.14 -0.18 0.16 -0.24 z M24.8 4.16 c0 0.06 -0.06 0.22 -0.1 0.28 c-0.24 0.56 -0.5 1.12 -0.8 1.64 c-0.32 0.54 -0.54 1.14 -0.8 1.7 c-0.54 1.14 -1.14 2.28 -1.64 3.42 c-0.22 0.5 -0.48 0.96 -0.66 1.44 c-0.04 0.1 -0.06 0.16 -0.06 0.24 c0 0.18 0.12 0.32 0.2 0.48 c0.12 0.24 0.22 0.5 0.34 0.74 c0.06 0.12 0.1 0.22 0.16 0.34 c0.62 1.22 1.26 2.42 1.88 3.64 c0.22 0.42 0.44 0.86 0.66 1.28 c0.04 0.1 0.2 0.34 0.2 0.48 c0 0.1 -0.32 0.12 -0.46 0.12 c-0.46 0 -0.88 0.02 -1.38 0.02 c-0.2 0 -0.38 -0.06 -0.52 -0.22 c-0.14 -0.22 -0.26 -0.48 -0.38 -0.72 c-0.1 -0.24 -0.22 -0.46 -0.32 -0.7 c-0.22 -0.48 -0.48 -0.94 -0.72 -1.4 c-0.2 -0.42 -0.4 -0.82 -0.6 -1.24 c-0.02 -0.08 -0.08 -0.28 -0.22 -0.4 c-0.08 0.1 -0.34 0.74 -0.34 0.84 c0 0.38 0.02 0.74 0.02 1.16 c0 0.14 -0.02 0.28 -0.02 0.42 l0 1.46 c0 0.18 0.02 0.34 0.02 0.44 c0 0.18 -0.08 0.36 -0.3 0.36 s-0.44 -0.02 -0.62 -0.02 c-0.26 0 -0.44 -0.02 -0.7 0 c-0.08 0 -0.3 0.02 -0.36 0.02 s-0.14 -0.14 -0.14 -0.18 c-0.02 -0.14 -0.02 -0.3 -0.02 -0.98 c0 -0.34 0.02 -0.7 0.02 -1.04 c0 -0.46 -0.02 -0.92 -0.02 -1.36 c0 -0.5 0.04 -1 0.04 -1.5 c0 -1.02 -0.02 -2.02 -0.04 -3.04 c0 -1.02 0.06 -2.06 0.04 -3.08 c0 -0.68 -0.02 -1.36 -0.02 -2.04 c0 -0.6 -0.02 -1.2 -0.02 -2.18 c0 -0.06 -0.02 -0.22 -0.02 -0.28 c0 -0.14 0.04 -0.3 0.26 -0.3 s0.44 0.02 0.92 0.02 c0.24 0 0.5 0.02 0.7 0.02 c0.1 0 0.2 0 0.24 0.08 c0.04 0.06 0.04 0.18 0.04 0.26 c0 0.26 -0.02 0.52 -0.02 0.78 c0 0.72 -0.02 2.02 -0.02 2.3 c0.02 0.42 0.04 0.86 0.04 1.28 c0 0.38 -0.02 0.78 -0.02 1.16 c0 0.5 0 0.96 -0.02 1.44 c0.3 -0.56 0.56 -1.2 0.82 -1.76 c0.3 -0.62 0.56 -1.16 0.84 -1.78 c0.22 -0.5 0.46 -0.98 0.68 -1.48 c0.18 -0.44 0.48 -0.98 0.64 -1.36 c0.1 -0.24 0.2 -0.52 0.34 -0.74 c0.06 -0.1 0.16 -0.1 0.28 -0.1 c0.34 0 0.68 -0.02 1.02 -0.04 c0.26 -0.02 0.52 -0.02 0.76 -0.02 c0.1 0 0.2 0.04 0.2 0.1 z M20.759999999999998 12.04 c0.18 -0.4 0.34 -0.78 0.52 -1.18 c-0.12 0.1 -0.32 0.2 -0.48 0.24 c-0.04 0.02 -0.14 0.06 -0.2 0.06 c-0.28 0 -0.36 -0.46 -0.42 -0.7 c-0.04 -0.08 -0.06 -0.16 -0.06 -0.24 c-0.06 0.14 -0.12 0.26 -0.18 0.4 c-0.16 0.32 -0.28 0.62 -0.46 0.94 c0 0 -0.22 0.4 -0.24 0.42 c-0.06 0.14 -0.1 0.32 -0.22 0.32 c-0.1 0 -0.1 -0.3 -0.1 -0.42 l0 -1.34 c-0.12 0.18 -0.28 0.38 -0.38 0.5 c-0.08 0.1 -0.2 0.32 -0.32 0.32 c-0.28 0 -0.56 -0.48 -0.68 -0.66 c-0.02 -0.04 -0.06 -0.06 -0.08 -0.1 c0 1.1 -0.02 2.2 0 3.38 c0 0.34 0.02 0.7 0.02 1.04 l0 1.86 c0.02 0.92 0 1.84 -0.02 2.76 c0.08 0 0.14 -0.02 0.2 -0.02 c0.24 0 0.5 0.02 0.82 0.02 c0.1 0 0.2 0.02 0.32 0.02 s0.12 -0.06 0.12 -0.2 c0 -0.1 -0.02 -0.2 -0.02 -0.3 c0 -0.16 0.02 -0.32 0.02 -0.5 l0 -2.18 c0 -0.22 -0.02 -0.46 0.06 -0.66 c0.04 -0.08 0.26 -0.62 0.32 -0.72 c0.04 -0.08 0.08 -0.18 0.12 -0.26 s0.04 -0.14 0.14 -0.14 c0.06 0 0.08 0.04 0.1 0.08 c0.3 0.46 0.52 1 0.78 1.5 c0.28 0.54 0.56 1.1 0.84 1.64 c0.22 0.46 0.46 0.96 0.7 1.42 c0.06 0.2 0.2 0.3 0.5 0.3 c0.4 0 0.86 -0.02 1.26 -0.02 c-0.08 -0.12 -0.14 -0.26 -0.2 -0.38 c-0.18 -0.38 -0.42 -0.78 -0.62 -1.22 c-0.38 -0.78 -0.8 -1.54 -1.2 -2.3 c-0.14 -0.24 -0.26 -0.5 -0.38 -0.74 c-0.1 -0.24 -0.24 -0.48 -0.4 -0.8 c-0.1 -0.2 -0.2 -0.42 -0.3 -0.62 c-0.08 -0.14 -0.26 -0.4 -0.26 -0.58 c0 -0.1 0.04 -0.16 0.08 -0.26 c0.1 -0.22 0.2 -0.46 0.3 -0.68 z M29.94 15.32 c-0.04 -1.64 -0.04 -3.28 -0.02 -4.92 c-0.06 0.22 -0.32 0.48 -0.44 0.68 c-0.08 0.16 -0.2 0.28 -0.32 0.28 c-0.06 0 -0.2 -0.04 -0.26 -0.16 c-0.1 -0.16 -0.2 -0.3 -0.32 -0.44 c-0.08 -0.08 -0.16 -0.14 -0.22 -0.24 c0.02 1.34 0.02 2.7 0.02 4.04 c0 0.92 0.02 1.86 0.02 4.24 l0 0.9 c0.5 -0.04 1.04 -0.02 1.54 -0.02 c-0.02 -0.22 -0.02 -0.54 -0.02 -0.76 c0 -0.48 0.02 -0.96 0.02 -1.46 c0 -0.72 0.02 -1.42 0 -2.14 z M32.62 5.48 l0 0.72 c0 0.18 -0.08 0.22 -0.36 0.22 c-0.2 0 -0.42 -0.02 -0.62 -0.02 c-0.28 0 -0.6 -0.02 -1.3 -0.02 c-0.02 0.04 -0.04 0.12 -0.04 0.18 c0 0.48 -0.04 0.86 -0.04 1.36 c0 0.64 -0.04 1.3 -0.04 1.96 c0 0.56 0.02 1.12 0.02 1.66 c0 0.88 0.02 1.72 0.02 2.64 l0 0.9 c0.02 0.3 0.02 0.58 0.02 0.88 c0 0.42 -0.02 0.84 -0.02 1.26 l0 2.52 c0 0.08 0.04 0.26 -0.16 0.26 c-0.3 0 -0.54 -0.02 -0.84 -0.02 s-0.72 0.02 -0.96 0.02 l-0.22 0 c-0.02 -0.02 -0.04 -0.1 -0.04 -0.18 c0 -0.12 0.02 -0.28 0.02 -0.34 c-0.02 -0.48 0 -0.96 0 -1.44 c0.02 -1.22 0 -2.44 0 -3.68 c0 -1.48 -0.02 -3.58 -0.02 -5.3 l0 -2.16 c0 -0.2 -0.02 -0.4 -0.02 -0.6 c-0.56 0.04 -1.12 0 -1.68 0.02 c-0.08 0 -0.2 0.02 -0.32 0.02 s-0.22 -0.02 -0.26 -0.08 c-0.04 -0.08 -0.06 -0.16 -0.06 -0.26 c0 -0.12 0.02 -0.26 0.02 -0.36 c0 -0.24 0.02 -0.48 0.02 -0.72 c0 -0.22 -0.02 -0.4 -0.02 -0.74 c0 -0.06 0.12 -0.16 0.28 -0.16 l1.2 0 s0.94 0.02 1.72 0.02 c0.38 0 1.78 0.02 2.16 0.02 c0.44 0 0.88 -0.02 1.32 0 c0.26 0 0.24 0.12 0.24 0.38 c0 0.34 -0.02 0.7 -0.02 1.04 z M26.4 5.76 c0.02 0 0.26 -0.04 0.34 -0.06 c-0.04 -0.02 -0.36 -0.02 -0.42 -0.04 c0 0.02 0.06 0.06 0.08 0.1 z M31.14 4.68 c0.02 0.04 0.12 0.1 0.16 0.12 c0.02 -0.04 -0.02 -0.12 -0.02 -0.18 c-0.02 0 -0.1 0.02 -0.14 0.06 z M28.740000000000002 8.24 c0.02 0.02 0.04 0.04 0.08 0.06 c-0.02 -0.04 -0.06 -0.28 -0.1 -0.32 c0 0.04 0 0.24 0.02 0.26 z M29.22 10.3 l-0.14 0.04 l0.08 0.04 z M29.38 7.82 c0.02 -0.02 0.02 -0.26 0.02 -0.28 c0 -0.06 -0.04 -0.1 -0.06 -0.14 c0.02 0.08 0.02 0.36 0.04 0.42 z M28.88 8.78 c0 -0.06 -0.06 -0.08 -0.08 -0.1 l0.04 0.24 c0.02 -0.02 0.04 -0.12 0.04 -0.14 z M29.82 9.54 c0 -0.06 0 -0.18 0.02 -0.28 c-0.04 0.02 -0.08 0.12 -0.1 0.14 c0 0.06 0.04 0.12 0.08 0.14 z M30.04 5.800000000000001 l0.32 0 c-0.02 -0.02 -0.2 -0.06 -0.22 -0.08 c-0.02 0.02 -0.06 0.06 -0.1 0.08 z M40.56 14.059999999999999 c0 -0.74 -0.02 -1.48 -0.02 -2.22 l0 -1.34 c-0.08 0.1 -0.16 0.22 -0.24 0.32 c-0.12 0.16 -0.3 0.58 -0.5 0.58 c-0.24 0 -0.42 -0.32 -0.52 -0.46 c-0.06 -0.08 -0.14 -0.14 -0.2 -0.22 c0 0.5 0 1 0.02 1.5 c0.04 0.88 0.06 1.76 0.06 2.92 c0 0.62 -0.06 1.22 -0.32 1.82 c-0.26 0.56 -0.64 1.04 -1.3 1.06 c-0.68 0.02 -1.18 -0.36 -1.48 -0.96 c-0.28 -0.56 -0.32 -1.24 -0.36 -1.86 c-0.06 -0.82 -0.06 -1.64 -0.06 -2.46 c0 -0.7 0 -1.38 0.02 -2.06 c-0.08 0.1 -0.16 0.22 -0.22 0.28 c-0.12 0.14 -0.36 0.54 -0.56 0.54 c-0.16 0 -0.32 -0.28 -0.42 -0.38 s-0.24 -0.24 -0.3 -0.36 c0 1.26 0 2.54 -0.02 3.96 c0 1.14 0.08 2.32 0.66 3.34 c0.22 0.4 0.64 0.82 1.02 1.1 c0.24 0.12 0.6 0.34 0.88 0.4 c0.26 0.06 0.54 0.1 0.8 0.1 c0.34 0 0.66 -0.04 0.98 -0.18 c0.58 -0.26 1.06 -0.72 1.38 -1.28 c0.68 -1.2 0.7 -2.66 0.7 -4.14 z M40.86 4.779999999999999 l0 2.3 c0 0.74 -0.02 1.48 -0.02 2.22 l0 3.88 c0 0.46 0.02 0.92 0.02 1.38 c0 0.68 0 1.38 -0.14 2.04 c-0.2 0.9 -0.44 1.8 -1.1 2.46 c-0.26 0.24 -0.7 0.6 -1.04 0.74 s-0.72 0.2 -1.1 0.2 c-0.46 0 -0.92 -0.1 -1.3 -0.28 c-0.4 -0.2 -0.82 -0.42 -1.12 -0.76 s-0.54 -0.66 -0.74 -1.1 c-0.42 -0.94 -0.5 -1.36 -0.5 -3.88 c0 -1.86 0.06 -2.62 0.04 -5.24 c0 -0.34 -0.02 -0.84 -0.02 -1.22 c-0.02 -0.88 -0.04 -1.84 -0.04 -2.76 c0 -0.52 0 -0.64 0.08 -0.74 c0.06 -0.02 0.12 -0.02 0.16 -0.02 c0.1 0 0.2 0.02 0.26 0.02 c0.28 0 0.68 -0.02 0.96 -0.02 c0.2 0 0.34 0.02 0.52 0.02 c0.12 0 0.18 0 0.18 0.24 s0.02 0.48 0.02 0.72 c0 0.58 -0.02 1.16 -0.02 1.74 c0 0.64 -0.02 1.32 -0.02 1.96 c0 0.46 0.02 0.9 0.02 4.78 c0 0.7 0.04 1.48 0.1 2.22 c0.04 0.52 0.14 1.16 0.48 1.58 c0.3 0.3 0.56 0.44 1.02 0.44 c0.12 0 0.22 -0.04 0.32 -0.08 c0.88 -0.38 0.98 -1.76 0.98 -2.6 c0 -1.32 -0.06 -2.62 -0.06 -3.94 c0 -0.48 -0.04 -1.66 -0.04 -2.12 c0 -1.04 -0.02 -1.44 -0.04 -2.54 c-0.02 -0.7 -0.04 -1.4 -0.04 -2.1 c0 -0.22 0.08 -0.3 0.26 -0.32 c0.08 0 0.28 0.02 0.38 0.02 l0.98 0 c0.08 0 0.24 -0.02 0.34 -0.02 c0.12 0 0.24 0.04 0.24 0.18 c0 0.16 -0.02 0.5 -0.02 0.6 z M39.440000000000005 7.039999999999999 l-0.02 -0.08 l-0.08 0.26 z M39.84 10.42 l-0.14 0.04 l0.12 0.06 z M40.1 6.24 c0.02 -0.04 0.02 -0.22 0.02 -0.26 s0 -0.08 -0.02 -0.16 c0 0.04 -0.02 0.14 -0.02 0.18 s0 0.22 0.02 0.24 z M40.260000000000005 9.2 c0.04 -0.04 0.08 -0.12 0.08 -0.14 s-0.02 -0.12 -0.06 -0.14 c0 0.04 -0.02 0.24 -0.02 0.28 z M34.540000000000006 6.9399999999999995 c0 -0.04 -0.02 -0.32 -0.02 -0.36 c-0.02 0.06 -0.04 0.18 -0.04 0.22 c0 0.06 0.02 0.08 0.06 0.14 z M34.800000000000004 10.6 l-0.18 -0.04 l0.2 0.12 z M48.080000000000005 7.220000000000001 c0.08 0.16 0.12 0.3 0.14 0.4 c0.02 -0.02 0.1 -0.06 0.12 -0.06 c-0.06 -0.12 -0.14 -0.2 -0.26 -0.34 z M46.56 5.32 l0.1 0.04 c0 -0.02 -0.18 -0.18 -0.26 -0.2 z M43.06 10.6 l0.02 0.16 l0.16 -0.14 c0 -0.02 -0.12 -0.02 -0.18 -0.02 z M42.84 5.98 c0.02 -0.06 0.02 -0.2 0.02 -0.26 c-0.02 0.06 -0.1 0.12 -0.1 0.14 s0.04 0.08 0.08 0.12 z M43.160000000000004 8.68 l0.12 0.08 c-0.02 -0.14 -0.06 -0.26 -0.08 -0.36 c-0.02 0.14 -0.04 0.2 -0.04 0.28 z M48.02 10.68 l0.18 -0.18 c-0.02 0 -0.06 0 -0.1 0.02 c-0.02 0.02 -0.08 0.14 -0.08 0.16 z M42.52 6.5 l0.1 0 c-0.02 -0.06 -0.1 -0.14 -0.14 -0.18 c0.02 0.08 0.04 0.16 0.04 0.18 z M46.440000000000005 6.4399999999999995 l0.2 0.14 c-0.02 -0.08 -0.08 -0.2 -0.1 -0.2 s-0.06 0.04 -0.1 0.06 z M42.86000000000001 10.1 l0.16 0.12 c0 -0.1 -0.08 -0.28 -0.18 -0.32 c0 0.04 0 0.16 0.02 0.2 z M47.06 16.46 c0 -0.1 -0.02 -0.56 -0.16 -0.84 c-0.1 -0.22 -0.4 -0.52 -0.72 -0.72 c-0.16 -0.1 -0.32 -0.14 -0.5 -0.2 c-0.36 -0.12 -0.72 -0.12 -1.34 -0.12 c-0.1 0 -0.18 0 -0.18 0.12 c0 0.08 0.02 0.46 0.02 0.52 c0 0.84 -0.02 1.44 -0.02 2.3 c0 0.1 0.02 0.28 0.02 0.38 c0.34 0 0.4 0.02 0.74 0.02 c0.22 0 0.76 -0.02 0.98 -0.06 c0.3 -0.06 0.56 -0.18 0.78 -0.42 c0.1 -0.12 0.2 -0.26 0.26 -0.4 c0.02 -0.04 0.12 -0.3 0.12 -0.58 z M47.400000000000006 16.46 c0 0.86 -0.58 1.64 -1.6 1.74 c-0.56 0.04 -1.26 0.04 -1.8 0.04 c-0.06 0 -0.16 0 -0.16 -0.2 c0 -1.06 -0.02 -2.02 -0.02 -3.1 c0 -0.12 -0.02 -0.42 -0.02 -0.54 c0 -0.16 0.1 -0.18 0.26 -0.18 c0 0 0.66 0 1.02 0.02 c0.34 0.02 0.68 0.1 0.98 0.24 c0.42 0.18 0.72 0.38 1 0.74 c0.26 0.34 0.34 0.78 0.34 1.24 z M47.14000000000001 9.44 c0.02 -0.38 -0.04 -0.9 -0.14 -1.26 c-0.14 -0.56 -0.46 -1.08 -0.9 -1.48 c-0.08 -0.08 -0.48 -0.34 -0.66 -0.44 c-0.16 -0.06 -0.32 -0.12 -0.48 -0.16 c-0.22 -0.06 -0.52 -0.06 -0.7 -0.06 c-0.08 0 -0.1 0.02 -0.1 0.06 c0 0.08 -0.02 0.34 -0.02 0.58 c0 0.18 -0.02 0.5 -0.02 0.7 c0 0.38 -0.02 1.16 -0.02 1.56 c0 0.78 0.02 0.96 0.04 1.74 c0 0.34 0.02 0.66 0.02 1 c0 0.28 0.02 0.56 0.04 0.9 c0.76 -0.06 1.52 -0.22 2.02 -0.86 c0.24 -0.32 0.44 -0.68 0.58 -1.04 c0.16 -0.4 0.32 -0.82 0.34 -1.24 z M48.940000000000005 16.740000000000002 c0 -0.32 -0.04 -0.7 -0.1 -1 c-0.06 -0.28 -0.14 -0.6 -0.28 -0.88 c-0.12 -0.26 -0.34 -0.58 -0.68 -0.86 c-0.1 -0.08 -0.28 -0.22 -0.38 -0.32 l-0.32 -0.22 c-0.08 -0.04 -0.12 -0.06 -0.12 -0.1 c0 -0.02 0.02 -0.06 0.08 -0.12 c0.52 -0.5 1 -1.06 1.3 -1.72 c0.12 -0.26 0.24 -0.56 0.32 -0.86 l-0.1 0.06 c-0.22 0.14 -0.62 0.5 -0.9 0.5 c-0.12 0 -0.42 -0.54 -0.48 -0.8 c-0.06 0.18 -0.12 0.36 -0.2 0.52 c-0.24 0.48 -0.46 0.96 -0.88 1.3 c-0.28 0.22 -0.62 0.4 -0.98 0.52 c-0.2 0.06 -0.42 0.1 -0.62 0.12 c-0.16 0.02 -0.4 0.06 -0.58 0.06 c-0.1 0 -0.16 -0.14 -0.16 -0.28 c-0.06 -0.66 -0.02 -1.36 -0.04 -2.08 c0 0.02 -0.02 0.04 -0.02 0.06 c-0.08 0.12 -0.18 0.24 -0.28 0.34 s-0.22 0.3 -0.4 0.3 c-0.16 0 -0.38 -0.34 -0.5 -0.5 l-0.2 -0.22 c0.02 0.86 0.02 1.74 0.02 2.6 c0 1.62 -0.06 3.24 -0.06 4.84 c0 0.46 -0.02 0.92 -0.02 1.38 c0 0.14 0 0.24 0.08 0.24 c0.06 0 0.26 -0.02 0.44 -0.02 c0.56 0 1.06 0.02 1.62 0.04 c0.3 0.02 0.58 0.02 0.88 0.02 c0.26 0 0.54 -0.02 0.8 -0.04 c0.44 -0.04 0.94 -0.16 1.36 -0.42 c0.2 -0.12 0.42 -0.26 0.62 -0.5 c0.18 -0.2 0.34 -0.42 0.48 -0.66 c0.22 -0.36 0.3 -0.98 0.3 -1.3 z M49.28 16.56 c0 0.26 -0.02 0.52 -0.06 0.76 c-0.08 0.64 -0.5 1.24 -0.74 1.52 c-0.7 0.82 -1.52 1.16 -3 1.16 c-0.82 0 -1.42 -0.08 -2.42 -0.08 c-0.04 0 -0.72 0.02 -0.8 0.02 c-0.12 0 -0.22 -0.06 -0.22 -0.2 s0.02 -0.36 0.02 -0.52 l0 -1 c0 -1.26 0.06 -2.5 0.06 -3.86 c0 -0.78 0 -1.54 -0.02 -2.32 c-0.02 -0.82 -0.04 -1.64 -0.04 -2.46 c0 -0.64 0 -1.26 0.02 -1.9 c0.02 -1.06 0 -2.12 0 -3.18 c0 -0.06 -0.02 -0.2 -0.02 -0.3 c0 -0.12 0.06 -0.2 0.18 -0.2 c0.06 0 0.12 0 0.18 0.02 c0.86 0 1.06 -0.02 1.72 -0.02 c0.52 0 1.06 0.04 1.54 0.16 c0.9 0.24 1.84 0.68 2.42 1.46 c0.24 0.32 0.52 0.74 0.68 1.14 c0.22 0.56 0.36 1.16 0.46 1.76 c0.04 0.26 0.06 0.46 0.06 0.72 c0 0.56 -0.08 1.14 -0.26 1.62 c-0.08 0.2 -0.16 0.48 -0.32 0.8 c-0.2 0.4 -0.38 0.72 -0.66 1.08 c-0.06 0.08 -0.12 0.14 -0.52 0.54 l0.36 0.3 c0.26 0.2 0.48 0.44 0.68 0.7 c0.28 0.38 0.5 0.92 0.58 1.36 c0.04 0.24 0.12 0.66 0.12 0.92 z M57.32000000000001 4.640000000000001 l0 1.52 c0 0.08 0 0.12 -0.06 0.16 c-0.12 0.06 -0.36 0.02 -0.48 0.02 c-0.22 0 -0.44 -0.02 -0.64 -0.02 l-1.74 0 c-0.26 0 -0.52 -0.02 -1.3 -0.02 c-0.1 0 -0.24 0 -0.36 0.06 c0 0.4 -0.02 0.8 -0.02 1.28 c0 0.64 0 1.3 0.02 1.94 c0.04 0.92 0.04 1.92 0.04 2.84 c0 0.12 0 0.42 0.08 0.52 c0.18 0 0.36 0.02 0.58 0.02 c0.36 0 0.72 -0.02 1.16 -0.02 c0.12 0 0.3 0 0.4 0.06 c0.08 0.04 0.12 0.16 0.12 0.28 c0 0.14 -0.02 0.28 -0.02 0.36 c0 0.22 0.02 0.52 0 0.74 c0 0.08 0.02 0.24 0.02 0.36 c0 0.18 -0.12 0.32 -0.26 0.32 l-1.44 0 c-0.2 0 -0.56 0 -0.76 0.02 c-0.04 0.04 -0.06 0.16 -0.06 0.3 c0 0.62 0 1.02 0.04 1.66 c0.02 0.22 0.02 0.46 0.02 0.72 c0.38 0.02 0.76 0.04 1.14 0.04 c0.7 0 1.38 0 2.06 -0.02 c0.48 -0.02 0.82 -0.02 1.34 -0.02 c0.08 0 0.12 0.18 0.12 0.26 c0 0.44 -0.02 0.84 -0.02 1.44 c0 0.06 0.02 0.18 0.02 0.28 c0 0.12 -0.04 0.2 -0.12 0.24 c-0.12 0.02 -0.32 0.02 -0.44 0.02 c-0.38 0 -0.78 -0.02 -1.18 -0.02 c-1.32 -0.02 -2.64 0.02 -3.96 0.02 l-0.82 0 c-0.18 0 -0.24 -0.04 -0.24 -0.22 c0 -0.6 -0.02 -1.2 -0.02 -1.8 c0.02 -1.6 0 -3.2 -0.02 -4.78 c-0.02 -0.74 0.02 -1.5 0.02 -2.24 c0 -0.44 -0.02 -0.88 -0.02 -1.32 c0 -0.82 -0.06 -1.66 -0.04 -2.48 c0 -0.62 -0.02 -1.26 -0.02 -2.64 c0 -0.08 -0.02 -0.18 -0.02 -0.28 c0 -0.18 0.12 -0.24 0.36 -0.24 c0.64 0 1.3 0.02 1.94 0.04 c1.06 0.02 2.12 0.02 3.18 0.02 c0.28 0 0.88 -0.02 1.1 -0.02 c0.14 0 0.32 0.02 0.32 0.1 c0 0.12 -0.02 0.36 -0.02 0.5 z M51.400000000000006 11.24 c-0.1 -0.12 -0.42 -0.52 -0.52 -0.7 c0 1.1 -0.04 2.2 -0.02 3.28 c0.02 0.9 0 1.82 0 2.72 l0 1.7 c0 0.26 0.02 0.54 0.02 1.42 c0.42 0 0.88 0.04 1.3 0.04 c0.5 0 1 -0.02 1.5 -0.02 l2.9 0 c0.14 0 0.26 -0.02 0.38 -0.02 c0 -0.36 0.02 -0.72 0.04 -1.06 c0 -0.06 0.02 -0.18 0.02 -0.3 c0 -0.06 0 -0.12 -0.02 -0.18 c-0.04 -0.04 -0.32 -0.04 -0.36 -0.04 c-0.78 0 -1.58 0.04 -2.56 0.04 c-0.32 0 -0.62 -0.02 -1.4 -0.02 c-0.04 0 -0.2 0 -0.24 -0.02 c-0.08 -0.04 -0.12 -0.46 -0.12 -0.76 c-0.02 -0.74 -0.04 -1.44 -0.04 -2.2 c0 -0.16 -0.02 -0.36 0.22 -0.38 c0.48 -0.02 0.94 -0.04 1.42 -0.04 c0.22 0 0.44 0.02 0.68 0.02 c0.1 0 0.18 -0.04 0.18 -0.14 c0 -0.32 -0.02 -0.68 -0.02 -1.04 c0 -0.04 0.02 -0.14 0.02 -0.22 c-0.04 -0.04 -0.2 -0.06 -0.36 -0.06 c-0.14 0 -1.4 0.04 -1.58 0.04 c-0.22 0 -0.38 -0.02 -0.38 -0.28 c0 -0.8 -0.02 -1.66 -0.04 -2.48 c-0.02 0.06 -0.08 0.12 -0.12 0.2 c-0.12 0.2 -0.26 0.42 -0.42 0.6 c-0.16 0.2 -0.34 0.08 -0.48 -0.1 z M56.720000000000006 4.68 c0 -0.04 -0.06 -0.12 -0.1 -0.12 s-0.24 0.06 -0.28 0.06 c0.1 0.02 0.3 0.02 0.38 0.06 z M53.300000000000004 5.5 c0.04 -0.02 0.16 -0.06 0.2 -0.08 c-0.1 0 -0.3 0 -0.36 0.06 z M51.6 10.34 c-0.02 0.02 -0.12 0.12 -0.12 0.14 s0.06 0.1 0.08 0.12 z M52.260000000000005 5 c-0.02 0 -0.32 0.1 -0.34 0.14 c0.06 0 0.16 0 0.2 -0.02 s0.12 -0.1 0.14 -0.12 z M51.14 5.68 c-0.02 0.02 -0.1 0.34 -0.1 0.36 s0.06 0.08 0.08 0.1 z"></path></g></svg>